<svg width="285" height="511" viewBox="0 0 285 511" fill="none" xmlns="http://www.w3.org/2000/svg">
<path d="M71.441 198.901C71.634 198.09 71.845 197.283 72.016 196.468C73.377 189.994 75.92 184.029 79.529 178.482C81.59 175.314 83.604 172.096 85.364 168.756C88.649 162.521 89.775 155.795 89.471 148.778C89.295 144.714 88.558 140.755 87.661 136.809C87.437 135.824 87.022 134.85 87.253 133.844C87.784 133.504 88.136 133.747 88.454 134.05C89.836 135.37 90.937 136.909 91.812 138.596C94.853 144.464 96.694 150.662 97.271 157.279C98.327 169.395 95.165 180.443 89.111 190.797C87.028 194.359 84.741 197.804 82.728 201.404C80.713 205.007 79.004 208.771 77.643 212.682C76.96 214.645 76.548 216.655 76.367 218.722C76.082 221.986 75.968 225.225 76.749 228.463C77.066 229.778 77.094 231.193 77.056 232.556C77.017 233.944 76.342 234.801 75.458 234.925C74.339 235.082 73.721 234.344 73.18 233.539C71.959 231.723 71.278 229.655 70.843 227.563C69.969 223.357 69.3 219.108 68.553 214.875C68.449 214.283 68.353 213.686 68.306 213.087C68.163 211.272 67.415 209.905 65.873 208.797C63.328 206.968 61.511 204.417 59.79 201.837C58.216 199.477 56.728 197.058 55.243 194.64C53.127 191.195 51.005 187.76 48.513 184.563C44.755 179.742 40.284 175.797 34.78 173.073C33.392 172.386 32.01 171.688 30.63 170.987C28.083 169.693 25.79 168.053 23.689 166.109C20.097 162.785 18.16 158.716 17.921 153.837C17.871 152.807 17.847 151.773 17.889 150.743C17.905 150.36 18.144 149.986 18.261 149.662C19.235 149.568 19.678 150.162 20.085 150.684C22.137 153.317 24.937 154.416 28.145 154.72C29.001 154.801 29.855 154.915 30.713 154.962C35.803 155.241 40.234 157.189 44.104 160.407C45.816 161.83 47.456 163.384 48.913 165.064C54.134 171.086 58.28 177.8 61.429 185.123C62.244 187.018 62.999 188.939 63.794 190.842C63.921 191.145 64.116 191.419 64.324 191.786C64.429 191.558 64.546 191.429 64.528 191.324C63.168 183.704 62.164 176.006 60.149 168.524C58.043 160.704 56.727 152.726 54.969 144.838C53.679 139.05 52.193 133.305 50.795 127.541C50.694 127.123 50.583 126.707 50.493 126.287C47.82 113.844 44.653 101.505 42.633 88.9251C42.412 87.5511 42.015 86.2861 41.152 85.1331C40.443 84.1851 39.972 83.0591 39.342 81.9151C38.296 81.8971 37.273 81.8231 36.256 81.8701C31.391 82.0961 26.852 80.9651 22.675 78.5081C20.53 77.2471 18.438 75.8721 16.444 74.3861C12.03 71.0961 9.217 66.5711 7.229 61.5531C6.093 58.6881 5.229 55.6961 4.477 52.7021C3.28 47.9391 2.712 43.0731 2.444 38.1631C2.252 34.6461 1.836 31.1411 1.548 27.6281C1.253 24.0301 1.007 20.4281 0.711998 16.8291C0.592998 15.3741 0.402996 13.9251 0.243996 12.4731C0.160996 11.7201 0.075 10.9671 0 10.3051C0.685 9.6931 1.07899 10.1341 1.44099 10.4671C3.96999 12.7931 6.715 14.8951 8.867 17.6161C9.108 17.9201 9.48199 18.1191 9.98199 18.5151C10.186 17.7081 10.341 17.1511 10.468 16.5881C11.149 13.5691 12.531 10.9591 14.861 8.8721C16.782 7.1521 18.678 5.4021 20.558 3.6381C21.562 2.6961 22.602 2.5171 23.845 3.1551C26.052 4.2881 28.403 5.1671 30.27 7.1511C30.568 6.6741 30.795 6.4271 30.892 6.1361C31.605 4.0111 33.163 2.6601 35.144 1.9061C37.144 1.1451 39.252 0.661099 41.323 0.0910986C42.36 -0.193901 43.189 0.2051 43.773 1.0741C44.204 1.7151 44.633 2.3681 44.967 3.0621C46.724 6.7151 48.881 10.1351 51.094 13.5161C55.261 19.8841 58.445 26.7151 61.089 33.8391C65.107 44.6641 64.371 55.2721 59.908 65.7421C58.205 69.7361 55.68 73.2331 52.735 76.3941C51.635 77.5741 50.282 78.5601 48.92 79.4421C47.74 80.2061 46.836 80.9631 47.146 82.5141C47.163 82.5961 47.163 82.6901 47.141 82.7711C46.484 85.2211 47.175 87.5291 47.844 89.8511C48.153 90.9231 48.368 92.0241 48.592 93.1191C50.364 101.799 52.079 110.491 53.909 119.159C55.596 127.152 57.315 135.139 59.186 143.09C60.623 149.195 62.024 155.318 64.013 161.281C64.149 161.688 64.268 162.105 64.353 162.525C65.719 169.262 67.833 175.84 68.519 182.724C68.74 184.943 69.303 187.126 69.647 189.336C70.043 191.884 70.36 194.445 70.73 196.997C70.823 197.636 70.989 198.265 71.121 198.898C71.228 198.902 71.335 198.901 71.441 198.901ZM77.813 207.078C78.221 206.428 78.665 205.799 79.028 205.125C79.803 203.688 80.46 202.184 81.3 200.788C83.116 197.77 84.989 194.786 86.887 191.819C90.393 186.337 92.9 180.429 94.479 174.127C95.337 170.701 95.935 167.221 95.989 163.686C96.093 156.915 95.006 150.33 92.54 144.006C91.865 142.274 91.264 140.487 89.998 138.693C89.974 139.219 89.934 139.44 89.959 139.653C90.241 142.04 90.628 144.419 90.803 146.813C91.207 152.342 90.815 157.813 89.134 163.129C88.461 165.256 87.557 167.31 86.883 169.437C84.827 175.923 82.209 182.175 79.373 188.354C76.702 194.175 74.973 200.279 74.55 206.708C74.505 207.393 74.469 208.081 74.475 208.767C74.481 209.48 74.279 210.223 74.616 211.003C74.774 210.826 74.861 210.773 74.881 210.701C77.033 202.795 80.189 195.272 83.597 187.844C86.179 182.217 88.726 176.572 90.336 170.57C91.07 167.834 91.648 165.055 92.327 162.304C92.482 161.675 92.344 160.887 93.107 160.512C93.598 160.799 93.505 161.251 93.432 161.656C93.02 163.938 92.665 166.234 92.146 168.492C90.559 175.396 87.808 181.882 84.991 188.351C82.796 193.392 80.748 198.498 78.699 203.601C78.258 204.7 78.093 205.911 77.8 207.07C77.66 207.275 77.498 207.47 77.393 207.691C77.362 207.757 77.489 207.898 77.544 208.005C77.598 207.943 77.684 207.888 77.699 207.817C77.751 207.574 77.777 207.325 77.813 207.078ZM44.739 78.4341C45.095 78.1721 45.47 77.9701 45.749 77.6771C47.534 75.7961 49.108 73.7431 50.276 71.4271C53.552 64.9321 56.012 58.1681 56.758 50.8731C56.959 48.9071 57.074 46.9331 57.266 44.9661C57.311 44.5081 57.198 43.8781 58.073 43.7941C58.668 44.8851 58.469 46.0971 58.442 47.2671C58.204 57.5971 55.118 67.0381 49.539 75.6991C49.379 75.9481 49.02 76.2221 49.495 76.6061C51.177 75.5101 52.306 73.8851 53.526 72.3371C59.007 65.3801 61.481 57.3701 61.758 48.6261C61.854 45.6121 61.501 42.6081 60.633 39.6981C59.255 35.0791 57.581 30.5721 55.612 26.1671C53.496 21.4341 50.769 17.0621 47.967 12.7261C46.098 9.8351 44.286 6.9151 42.902 3.7481C42.673 3.2241 42.26 2.7801 41.939 2.3111C39.912 2.4481 38.058 2.8431 36.315 3.5701C35.306 3.9911 34.312 4.6071 33.521 5.3571C31.943 6.8541 31.73 8.8781 32.806 10.7341C35.9 16.0721 37.853 21.8241 39.14 27.8331C40.479 34.0881 40.875 40.4291 40.985 46.8001C41.077 52.1281 40.61 57.4521 41.02 62.7861C41.37 67.3451 41.968 71.8421 43.386 76.2041C43.646 77.0071 43.868 77.8391 44.739 78.4341ZM42.086 79.2291C42.223 79.1461 42.359 79.0631 42.496 78.9791C42.395 78.6661 42.3 78.3511 42.192 78.0411C41.167 75.1191 40.168 72.1871 39.848 69.0831C39.274 63.5221 39.032 57.9561 39.208 52.3551C39.492 43.3061 38.891 34.3241 36.511 25.5241C35.543 21.9451 34.341 18.4601 32.74 15.1191C31.697 12.9431 30.467 10.8691 28.879 9.0391C27.292 7.2101 25.33 5.9131 23.087 4.9661C22.171 6.0571 22.009 7.2851 21.679 8.4131C19.876 14.5761 18.96 20.8311 19.925 27.2571C20.244 29.3811 20.559 31.5061 20.839 33.6361C20.899 34.0921 21.16 34.6591 20.456 35.0121C20.289 34.8761 20.001 34.7611 19.938 34.5711C19.098 32.0481 18.145 29.5561 17.984 26.8531C17.611 20.6071 18.219 14.4921 20.274 8.5511C20.392 8.2081 20.759 7.7841 20.069 7.3621C18.857 8.3831 17.589 9.4001 16.378 10.4801C13.694 12.8751 12.258 15.9201 11.768 19.4561C11.597 20.6851 11.755 21.7931 12.303 22.9421C14.863 28.3101 16.672 33.9541 18.352 39.6481C19.373 43.1071 20.506 46.5371 21.689 49.9451C23.993 56.5781 27.531 62.5731 31.5 68.3141C33.305 70.9251 35.345 73.3751 37.292 75.8871C37.53 76.1941 37.852 76.4361 38.135 76.7081C38.238 76.2321 38.121 75.9241 37.996 75.6211C36.549 72.1131 35.376 68.5141 34.845 64.7541C34.268 60.6671 34.032 56.5511 34.1 52.4151C34.17 48.1211 34.223 43.8211 34.086 39.5301C33.996 36.7041 33.551 33.8891 33.286 31.0671C33.244 30.6211 32.92 30.0641 33.738 29.6971C33.942 30.1641 34.244 30.5921 34.31 31.0531C34.725 33.9441 35.224 36.8331 35.43 39.7421C35.649 42.8221 35.666 45.9251 35.607 49.0151C35.481 55.6631 35.932 62.2341 37.555 68.7111C38.399 72.0791 39.7 75.2341 41.404 78.2391C41.6 78.5871 41.857 78.9001 42.086 79.2291ZM14.448 56.3811C15.057 57.4451 15.201 58.6391 15.432 59.8001C16.087 63.1021 17.066 66.3101 18.379 69.3991C19.081 71.0511 20.03 72.6001 20.914 74.1701C21.518 75.2421 22.435 76.0061 23.507 76.6181C26.618 78.3971 29.935 79.4951 33.517 79.7411C33.784 79.7591 34.065 79.5891 34.539 79.4461C33.177 78.2631 31.984 77.2951 30.866 76.2461C26.601 72.2451 23.538 67.3921 20.957 62.1971C17.846 55.9351 15.909 49.2261 13.528 42.6871C13.362 42.2321 13.364 41.7161 13.287 41.2291C13.817 41.4281 14.073 41.7341 14.224 42.0861C14.837 43.5071 15.417 44.9411 16.01 46.3701C17.988 51.1331 19.867 55.9401 21.974 60.6451C24.203 65.6211 27.201 70.1371 31 74.0721C32.188 75.3021 33.564 76.3531 34.879 77.4551C35.116 77.6541 35.492 77.8511 35.793 77.2701C35.589 76.9701 35.369 76.6121 35.116 76.2791C33.612 74.2911 32.065 72.3361 30.598 70.3211C24.46 61.8901 20.106 52.5981 17.149 42.6111C15.905 38.4101 14.457 34.2691 13.059 30.1141C11.105 24.3061 8.03 19.1971 3.485 15.0301C3.138 14.7111 2.725 14.4641 2.102 14.0071C2.089 14.6461 2.043 14.9701 2.083 15.2831C2.497 18.5231 2.977 21.7541 3.334 25.0001C3.767 28.9301 4.257 32.8641 4.439 36.8091C4.706 42.5951 5.64599 48.2621 6.92799 53.8861C7.94899 58.3671 9.704 62.5601 12.099 66.4771C13.362 68.5431 14.921 70.3781 16.781 71.9401C17.082 72.1931 17.46 72.3551 18.259 72.8321C16.042 67.2111 14.219 62.0181 14.448 56.3811ZM28.223 161.154C28.282 160.981 28.34 160.808 28.399 160.634C28.933 160.795 29.513 160.872 29.994 161.132C31.884 162.155 33.785 163.168 35.606 164.306C40.469 167.347 44.505 171.355 48.294 175.592C54.693 182.748 59.951 190.697 64.245 199.283C64.668 200.129 65.097 200.972 65.537 201.81C65.681 202.083 65.868 202.333 66.035 202.594C66.109 201.731 65.979 200.968 65.707 200.259C63.986 195.762 62.306 191.249 60.477 186.796C57.38 179.254 53.105 172.423 47.76 166.263C45.143 163.247 42.211 160.622 38.567 158.893C38.254 158.744 37.912 158.312 37.518 158.71C39.912 160.98 42.331 163.171 44.63 165.482C47.309 168.176 49.586 171.201 51.47 174.507C51.685 174.884 52.181 175.333 51.493 175.955C51.081 175.568 50.614 175.218 50.26 174.777C49.291 173.57 48.362 172.331 47.431 171.094C43.785 166.249 39.404 162.137 34.747 158.291C33.708 157.433 32.567 156.961 31.232 156.872C30.031 156.792 28.832 156.671 27.635 156.544C25.02 156.267 22.581 155.53 20.515 153.81C20.264 153.601 19.948 153.471 19.497 153.209C19.407 153.681 19.264 154.002 19.3 154.301C19.689 157.536 20.824 160.464 22.953 162.969C25.15 165.554 27.714 167.686 30.733 169.254C32.718 170.285 34.709 171.305 36.682 172.357C40.667 174.481 44.172 177.221 47.228 180.549C49.973 183.538 52.362 186.79 54.527 190.215C56.365 193.124 58.151 196.067 60.062 198.927C61.445 200.997 62.984 202.964 64.486 204.953C64.703 205.241 64.922 205.708 65.602 205.491C65.358 204.927 65.143 204.381 64.891 203.853C60.607 194.893 55.503 186.438 49.189 178.756C43.741 172.127 37.587 166.293 29.91 162.248C29.32 161.937 28.784 161.521 28.223 161.154ZM75.213 232.134C75.243 231.476 75.361 230.807 75.283 230.161C75.139 228.968 74.882 227.789 74.67 226.604C72.448 214.166 69.594 201.85 67.802 189.323C66.659 181.332 64.828 173.439 63.262 165.51C62.946 163.912 62.445 162.351 62.011 160.777C61.235 157.961 60.38 155.164 59.677 152.33C58.746 148.577 57.922 144.797 57.067 141.025C55.622 134.654 54.153 128.289 52.763 121.907C51.592 116.53 50.542 111.128 49.397 105.746C48.217 100.197 46.989 94.6591 45.779 89.1171C45.706 88.7811 45.614 88.4491 45.517 88.1201C45.469 87.9561 45.405 87.7941 45.325 87.6431C45.152 87.3141 44.875 87.0821 44.512 87.2541C44.322 87.3441 44.095 87.6411 44.108 87.8301C44.161 88.5971 44.252 89.3681 44.414 90.1191C45.468 94.9901 46.401 99.8821 47.705 104.705C49.162 110.093 50.243 115.584 51.454 121.038C53.001 128.002 54.314 135.013 56.141 141.92C57.26 146.152 57.925 150.504 58.81 154.799C59.07 156.061 59.377 157.314 59.671 158.57C61.176 165.014 62.763 171.44 64.157 177.908C64.826 181.01 65.087 184.197 65.612 187.333C66.661 193.606 67.747 199.873 68.851 206.137C69.792 211.472 70.76 216.801 71.756 222.126C72.151 224.238 72.645 226.332 73.113 228.43C73.415 229.768 73.863 231.052 75.213 232.134ZM82.365 177.967C81.43 178.1 81.302 178.771 81.012 179.233C78.058 183.926 75.897 188.963 74.437 194.314C73.367 198.236 72.704 202.205 72.723 206.278C72.727 207.189 72.749 208.093 73.175 209.327C73.248 208.686 73.295 208.439 73.302 208.191C73.475 202.189 74.809 196.427 77.009 190.868C78.338 187.511 79.838 184.222 81.245 180.895C81.634 179.97 81.963 179.021 82.365 177.967ZM41.826 81.7441C41.895 82.2171 41.873 82.4901 41.978 82.7021C42.167 83.0811 42.397 83.4521 42.671 83.7741C43.072 84.2441 43.581 84.6081 44.237 84.4711C44.936 84.3251 45.147 83.7271 45.218 83.1141C45.265 82.7121 45.185 82.2961 45.16 81.8621C44.063 81.4421 43.062 81.5181 41.826 81.7441Z" fill="#C68F88"/>
<path d="M261.451 359.875C261.788 361.532 261.537 362.805 261.395 364.072C261.309 364.839 261.149 365.603 260.961 366.352C259.352 372.776 257.61 379.163 255.348 385.394C253.011 391.832 249.553 397.661 245.611 403.231C241.104 409.598 235.705 415.104 229.675 420.026C227.745 421.601 225.859 423.248 224.095 425.005C220.104 428.98 217.738 433.898 215.912 439.17C213.842 445.148 212.818 451.319 211.956 457.544C211.662 459.673 211.21 461.78 210.82 463.894C210.683 464.635 210.517 465.37 210.661 466.223C210.874 465.883 211.121 465.559 211.296 465.2C215.829 455.909 222.572 448.381 230.198 441.571C233.085 438.993 236.065 436.52 238.999 433.995C243.437 430.175 247.694 426.177 251.545 421.749C254.043 418.877 256.141 415.743 258.072 412.482C258.773 411.298 259.462 410.106 260.197 408.943C260.41 408.605 260.764 408.356 261.02 408.099C261.765 408.455 261.65 409.008 261.615 409.507C261.439 411.994 261.278 414.483 261.049 416.965C260.868 418.934 260.64 420.9 260.356 422.857C259.632 427.846 258.03 432.568 255.631 436.981C249.037 449.11 240.741 459.89 230.109 468.793C225.163 472.935 220.205 477.068 215.653 481.653C212.495 484.833 209.528 488.179 207.088 491.952C206.108 493.467 205.056 494.977 204.367 496.628C203.478 498.758 202.896 501.02 202.231 503.239C201.911 504.308 201.803 505.449 201.418 506.49C201.006 507.605 200.526 508.753 199.814 509.687C198.711 511.135 196.867 510.889 196.023 509.255C195.678 508.586 195.433 507.792 195.411 507.047C195.372 505.768 195.38 504.447 195.654 503.206C196.974 497.245 198.388 491.305 199.772 485.358C200.123 483.85 200.464 482.339 200.846 480.839C201.42 478.59 201.97 476.332 202.631 474.108C203.8 470.176 203.902 466.145 203.903 462.097C203.903 461.839 203.874 461.581 203.877 461.323C203.962 453.607 201.397 446.862 196.651 440.814C194.265 437.774 192.176 434.5 189.988 431.308C186.49 426.205 184.239 420.552 182.734 414.585C180.825 407.01 180.094 399.327 180.998 391.552C181.637 386.058 183.059 380.745 185.314 375.674C185.668 374.877 185.762 374.783 186.818 373.868C186.943 374.215 187.106 374.498 187.14 374.794C187.207 375.391 187.203 375.996 187.227 376.597C187.558 384.844 189.747 392.536 194.159 399.545C195.854 402.238 197.664 404.86 199.375 407.544C201.828 411.393 204.098 415.346 205.78 419.605C207.888 424.94 208.906 430.501 209.212 436.211C209.284 437.551 209.264 438.907 209.867 440.254C210.054 439.35 210.261 438.449 210.425 437.541C211.587 431.109 212.66 424.66 213.919 418.247C215.344 410.988 216.753 403.717 218.488 396.529C222.931 378.125 226.46 359.532 230.26 340.994C230.527 339.692 230.644 338.495 229.869 337.28C229.299 336.387 229.303 335.294 229.539 334.267C229.829 333.005 229.24 332.361 228.163 331.871C225.879 330.832 223.779 329.499 221.974 327.731C218.168 324.003 215.674 319.56 214.91 314.266C213.959 307.678 213.747 301.089 215.081 294.5C215.885 290.53 216.763 286.588 218.203 282.799C219.248 280.049 219.866 277.197 220.475 274.336C220.618 273.663 220.738 272.979 220.96 272.332C221.433 270.952 222.388 270.617 223.546 271.455C224.951 272.473 226.118 273.737 227.052 275.203C227.558 275.997 228.031 276.811 228.619 277.78C229.078 277.454 229.502 277.218 229.847 276.896C230.916 275.898 231.917 274.826 233.013 273.861C234.597 272.465 235.477 272.524 236.944 274.117C238.545 275.855 239.643 277.883 240.211 280.189C240.369 280.829 240.561 281.46 240.793 282.297C241.377 281.885 241.8 281.621 242.185 281.309C243.521 280.225 244.845 279.127 246.172 278.031C249.094 275.616 249.206 275.633 251.177 278.732C251.449 279.16 251.762 279.562 251.999 279.895C252.98 280.197 253.603 279.625 254.293 279.331C255.242 278.927 256.16 278.445 257.119 278.068C258.023 277.712 258.606 277.917 259.056 278.782C259.451 279.54 259.78 280.345 260.03 281.162C261.206 284.998 261.519 288.914 261.053 292.899C260.988 293.458 260.617 294.068 261.289 294.714C261.661 294.246 262.027 293.803 262.375 293.345C265.747 288.913 270.376 286.7 275.736 285.794C276.15 285.724 276.592 285.769 277.014 285.819C277.532 285.88 277.858 286.524 277.615 287.013C277.426 287.394 277.204 287.771 276.935 288.1C272.912 293.039 270.455 298.814 268.039 304.619C266.057 309.381 264.055 314.136 261.964 318.85C261.236 320.492 260.315 322.073 259.307 323.564C255.286 329.516 249.801 333.132 242.546 333.884C241.186 334.025 239.849 334.39 238.603 334.632C237.542 336.038 236.533 337.313 235.602 338.642C235.268 339.118 235.029 339.705 234.906 340.276C234.488 342.209 234.104 344.151 233.774 346.101C233.345 348.644 233.052 351.211 232.576 353.745C230.625 364.142 229.06 374.62 226.501 384.891C224.525 392.824 222.786 400.804 221.106 408.801C220.931 409.636 220.76 410.472 220.572 411.378C221.256 411.254 221.263 410.742 221.423 410.401C224.065 404.775 227.402 399.569 230.913 394.456C238.78 383 247.84 372.55 257.565 362.656C258.347 361.861 259.199 361.128 260.065 360.425C260.361 360.185 260.804 360.122 261.451 359.875ZM253.085 437.671C252.812 438.138 252.538 438.605 252.264 439.072C251.678 439.691 251.056 440.279 250.513 440.934C248.811 442.984 247.199 445.112 245.443 447.115C240.679 452.547 235.987 458.036 231.645 463.815C231.146 464.478 230.673 465.161 230.157 465.878C230.404 465.946 230.51 466.009 230.548 465.981C230.958 465.676 231.378 465.379 231.758 465.039C239.377 458.211 245.589 450.223 251.017 441.596C251.515 440.804 251.845 439.906 252.253 439.057C252.526 438.588 252.798 438.119 253.071 437.65C253.115 437.598 253.16 437.545 253.204 437.493C253.164 437.552 253.125 437.612 253.085 437.671ZM257.521 365.305C256.927 365.787 256.268 366.207 255.75 366.76C253.282 369.392 250.843 372.051 248.412 374.717C245.333 378.093 242.555 381.69 240.489 385.79C239.485 387.784 238.513 389.795 237.555 391.811C237.405 392.126 237.054 392.496 237.456 392.881C237.624 392.776 237.8 392.716 237.901 392.594C241.603 388.076 245.344 383.589 248.977 379.016C251.65 375.651 254.043 372.077 256.152 368.327C256.694 367.364 257.058 366.301 257.504 365.284C257.565 365.251 257.636 365.228 257.683 365.181C257.717 365.147 257.721 365.082 257.738 365.03C257.666 365.121 257.593 365.213 257.521 365.305ZM237.425 388.569C236.849 389.196 236.221 389.784 235.709 390.46C234.827 391.623 234.012 392.836 233.179 394.036C229.209 399.757 225.47 405.61 222.441 411.904C219.906 417.173 217.844 422.563 217.297 428.787C217.735 427.803 218.061 427.119 218.347 426.419C221.659 418.287 225.431 410.373 230.399 403.121C233.503 398.59 235.328 393.524 237.4 388.539C237.453 388.502 237.514 388.471 237.558 388.424C237.589 388.39 237.598 388.335 237.616 388.289C237.553 388.383 237.489 388.476 237.425 388.569ZM205.735 490.559C205.915 490.375 206.123 490.211 206.271 490.004C210.234 484.432 214.956 479.558 220.07 475.056C222.8 472.653 225.143 469.908 227.34 467.041C232.418 460.416 237.641 453.916 243.22 447.7C247.474 442.96 251.466 438 255.137 432.791C255.678 432.024 256.236 431.217 256.537 430.343C257.208 428.395 257.732 426.395 258.293 424.409C258.419 423.963 258.453 423.492 258.547 422.924C258.275 423.034 258.166 423.042 258.134 423.096C257.435 424.278 256.715 425.45 256.058 426.655C250.115 437.565 242.527 447.158 233.232 455.414C230.275 458.041 227.422 460.791 224.616 463.579C222.116 466.063 219.686 468.625 217.331 471.248C213.462 475.559 210.186 480.294 207.714 485.546C206.949 487.172 206.4 488.899 205.752 490.58C205.711 490.639 205.67 490.697 205.628 490.756C205.663 490.691 205.699 490.625 205.735 490.559ZM225.678 460.424C226.224 460.016 226.81 459.651 227.31 459.192C229.841 456.866 232.335 454.499 234.87 452.177C238.238 449.093 241.292 445.722 244.185 442.197C249.945 435.177 254.486 427.407 258.453 419.269C259.186 417.766 259.588 416.22 259.78 414.592C259.818 414.268 259.848 413.902 259.307 413.871C259.155 414.036 258.946 414.197 258.82 414.409C255.459 420.08 251.065 424.887 246.374 429.467C244.72 431.082 243.163 432.829 241.773 434.675C239.915 437.143 238.178 439.713 236.541 442.334C233.128 447.8 229.811 453.326 226.468 458.836C226.16 459.344 225.955 459.915 225.702 460.457C225.636 460.485 225.562 460.502 225.509 460.546C225.471 460.577 225.463 460.644 225.441 460.695C225.521 460.604 225.6 460.514 225.678 460.424ZM249.714 289.718C249.635 290.209 249.674 290.559 249.526 290.786C248.776 291.937 247.99 293.066 247.194 294.186C245.303 296.849 243.296 299.437 241.522 302.175C237.788 307.937 235 314.068 234.554 321.072C234.35 324.279 234.479 327.431 235.429 330.512C235.7 331.392 235.947 332.339 236.797 332.776C237.914 332.74 238.435 331.985 239.028 331.397C241.251 329.197 242.945 326.611 244.343 323.832C245.076 322.374 245.705 320.864 246.396 319.384C246.53 319.098 246.688 318.753 247.259 319.074C247.013 320.286 246.598 321.481 246.097 322.659C244.881 325.52 243.382 328.217 241.562 330.739C241.287 331.12 240.804 331.512 241.417 332.181C242.827 332.065 244.112 331.418 245.344 330.631C250.407 327.399 253.851 322.818 255.699 317.205C257.646 311.289 258.362 305.114 258.045 298.881C257.814 294.322 256.915 289.843 255.873 285.402C255.721 284.756 255.424 284.145 255.158 283.418C254.037 283.734 253.31 284.288 253.106 285.301C252.885 286.39 252.668 287.509 252.684 288.611C252.718 290.929 252.904 293.245 253.032 295.562C253.311 300.591 252.936 305.53 251.006 310.253C250.76 310.855 250.657 311.59 249.772 311.842C249.568 310.792 249.948 309.903 250.263 309.041C252.014 304.255 252.335 299.333 251.855 294.301C251.651 292.168 251.66 290.014 251.573 287.869C251.55 287.302 251.527 286.736 251.493 285.896C250.828 286.281 250.348 286.462 249.993 286.78C247.882 288.671 245.646 290.454 243.734 292.532C236.219 300.7 231.126 310.085 229.747 321.266C229.524 323.074 229.515 324.865 229.769 326.662C229.966 328.054 230.494 329.313 231.345 330.428C231.972 331.25 232.721 331.9 234.038 332.095C233.914 331.433 233.858 330.952 233.732 330.49C233.096 328.149 232.801 325.765 232.885 323.344C233.072 317.957 234.174 312.8 236.571 307.919C239.786 301.373 244.344 295.772 248.831 290.113C248.962 289.95 249.26 289.916 249.714 289.718ZM222.743 273.183C222.511 273.575 222.313 273.774 222.27 274.002C221.489 278.161 220.007 282.107 218.643 286.09C218.059 287.795 217.517 289.522 217.082 291.27C215.357 298.201 215.274 305.216 216.09 312.275C216.554 316.288 217.899 319.957 220.229 323.257C220.428 323.539 220.527 324.073 221.11 323.889C219.4 318.373 219.091 316.242 219.109 310.166C219.127 304.061 219.761 299.139 220.994 296.224C221.27 297.582 221.17 298.663 221.017 299.743C220.388 304.186 220.332 308.652 220.503 313.123C220.67 317.47 221.595 321.645 223.594 325.538C224.064 326.453 224.587 327.351 225.189 328.183C225.835 329.076 226.659 329.781 227.841 329.875C227.905 329.632 227.966 329.536 227.943 329.468C227.754 328.9 227.539 328.34 227.35 327.772C225.173 321.229 224.214 314.584 225.521 307.713C225.873 305.862 226.133 303.975 226.216 302.095C226.571 294.144 226.089 286.284 223.332 278.71C223.197 278.338 222.927 277.923 223.472 277.402C223.772 277.795 224.124 278.132 224.325 278.543C225.39 280.721 226.142 283.021 226.462 285.414C226.939 288.989 227.258 292.584 227.647 296.171C227.7 296.656 227.765 297.14 227.852 297.856C229.071 296.381 229.387 294.899 229.454 293.338C229.648 288.824 229.044 284.418 227.643 280.123C227.107 278.48 226.405 276.912 225.363 275.52C224.697 274.629 224.02 273.736 222.743 273.183ZM198.152 508.673C199.273 507.727 199.645 506.606 199.933 505.446C201.175 500.441 202.44 495.441 203.63 490.423C204.285 487.663 204.77 484.863 205.397 482.095C206.137 478.826 206.987 475.582 207.714 472.31C208.442 469.037 209.164 465.759 209.734 462.457C210.757 456.528 211.576 450.564 212.639 444.642C214.157 436.181 215.995 427.782 217.454 419.304C219.057 409.988 221.166 400.766 223.376 391.562C225.905 381.031 227.882 370.368 230.12 359.766C231.436 353.533 232.113 347.204 233.007 340.907C233.053 340.58 233.01 340.229 232.943 339.902C232.916 339.772 232.714 339.587 232.59 339.586C232.359 339.583 231.979 339.633 231.92 339.772C231.687 340.315 231.489 340.891 231.398 341.474C230.958 344.276 230.659 347.104 230.126 349.887C227.032 366.018 223.637 382.082 219.868 398.073C217.878 406.519 216.095 415.021 214.737 423.61C213.462 431.675 211.975 439.711 210.364 447.716C208.889 455.047 207.176 462.331 205.472 469.613C203.865 476.476 202.132 483.31 200.453 490.156C200.392 490.406 200.295 490.648 200.238 490.899C199.264 495.173 198.278 499.444 197.33 503.724C197.048 504.996 197.06 506.295 197.412 507.557C197.509 507.913 197.833 508.207 198.152 508.673ZM184.091 386.466C182.886 389.205 182.837 392.058 182.545 394.871C182.485 395.453 182.607 396.081 182.767 396.653C183.392 398.887 183.974 401.139 184.739 403.325C186.378 408.01 189.184 412.034 192.126 415.972C196.097 421.285 199.925 426.685 202.125 433.038C202.155 433.125 202.382 433.143 202.518 433.192C202.57 433.037 202.674 432.879 202.665 432.727C202.311 426.183 201.354 419.733 199.772 413.368C198.757 409.287 196.652 405.983 193.304 403.429C188.659 399.886 185.885 395.16 184.685 389.476C184.476 388.476 184.289 387.47 184.091 386.466ZM238.064 436.978C237.427 437.454 237.08 437.682 236.769 437.952C235.017 439.471 233.245 440.969 231.533 442.532C224.454 448.994 218.106 456.037 213.556 464.586C210.466 470.39 207.994 476.383 206.906 482.894C206.852 483.216 206.505 483.648 207.071 483.976C207.279 483.634 207.48 483.355 207.63 483.05C209.653 478.941 212.224 475.198 215.203 471.733C218.737 467.622 221.94 463.258 224.851 458.697C229.285 451.75 233.594 444.724 237.953 437.729C237.992 437.665 237.979 437.569 238.064 436.978ZM203.296 447.636C203.274 447.229 203.294 446.814 203.223 446.416C202.65 443.208 202.17 439.978 201.448 436.804C200.371 432.072 198.396 427.695 195.68 423.669C193.856 420.965 192.054 418.24 190.111 415.622C187.277 411.803 184.873 407.774 183.336 403.253C183.225 402.928 183.256 402.394 182.535 402.411C183.254 410.455 184.984 418.187 188.516 425.462C190.173 428.875 192.321 431.984 194.461 435.097C197.321 439.259 200.608 443.133 203.296 447.636ZM248.894 278.382C248.385 278.65 247.888 278.813 247.516 279.124C244.094 281.993 240.564 284.75 237.323 287.812C233.543 291.384 230.524 295.56 228.986 300.634C227.938 304.093 227.17 307.622 226.79 311.216C226.491 314.039 226.5 316.876 226.983 319.691C227.038 320.012 227.145 320.325 227.359 321.142C227.59 319.393 227.732 318.152 227.921 316.917C228.69 311.879 230.186 307.045 232.109 302.341C233.802 298.2 235.691 294.155 238.327 290.509C238.879 289.746 239.483 289.016 240.114 288.317C240.297 288.114 240.657 288.071 241.219 287.837C240.912 289.361 239.967 290.173 239.389 291.174C238.787 292.215 238.13 293.223 237.539 294.27C236.948 295.316 236.388 296.381 235.851 297.457C235.276 298.609 234.721 299.772 234.201 300.95C233.716 302.049 233.27 303.167 232.84 304.29C232.414 305.403 232.03 306.533 231.628 307.655C233.506 304.703 235.176 301.651 236.992 298.69C238.883 295.605 241.252 292.881 243.708 290.226C246.103 287.636 248.994 285.631 251.75 283.449C251.255 281.403 250.168 279.911 248.894 278.382ZM274.762 288.049C274.401 287.897 274.324 287.841 274.243 287.835C274.075 287.822 273.895 287.801 273.737 287.843C268.972 289.108 265.131 291.695 262.524 295.921C261.581 297.451 260.822 299.102 260.076 300.743C259.366 302.304 259.202 304.967 259.599 307.525C260.665 304.137 261.871 301.204 263.552 298.507C265.218 295.833 267.082 293.31 269.654 291.346C269.775 291.569 269.866 291.678 269.845 291.708C269.355 292.406 268.9 293.136 268.347 293.781C265.628 296.951 263.635 300.527 262.186 304.433C261.111 307.33 259.971 310.202 258.854 313.084C258.483 314.042 258.049 314.978 257.726 315.951C255.963 321.259 253.357 326.029 249.066 329.75C248.771 330.005 248.549 330.344 247.878 331.13C248.927 330.792 249.402 330.702 249.818 330.496C253.376 328.732 256.181 326.109 258.256 322.755C259.519 320.713 260.726 318.61 261.687 316.415C263.581 312.089 265.31 307.691 267.062 303.305C269.042 298.35 271.126 293.454 274.27 289.091C274.459 288.826 274.554 288.496 274.762 288.049ZM259.312 366.234C258.791 366.223 258.734 366.639 258.589 366.909C255.456 372.776 251.642 378.181 247.439 383.317C244.824 386.512 242.06 389.588 239.529 392.847C236.84 396.308 234.342 399.916 231.782 403.476C231.57 403.771 231.153 404.096 231.521 404.623C231.745 404.509 231.996 404.436 232.176 404.28C236.029 400.957 240.22 398.103 244.454 395.296C246.382 394.018 248.14 392.482 249.968 391.053C251.433 389.908 252.342 388.397 253.03 386.676C255.365 380.834 256.938 374.751 258.779 368.754C259.029 367.941 259.136 367.084 259.312 366.234ZM249.332 393.933C248.989 393.965 248.797 393.925 248.689 394.002C245.615 396.194 242.556 398.408 239.481 400.598C231.405 406.348 225.109 413.555 221.262 422.778C220.866 423.728 220.389 424.644 219.992 425.593C219.856 425.92 219.499 426.283 220.006 426.779C222.047 424.189 224.389 421.938 226.881 419.841C228.129 418.791 229.39 417.756 230.642 416.711C237.97 410.593 243.881 403.288 248.746 395.106C248.951 394.76 249.108 394.385 249.332 393.933ZM201.455 415.272C201.563 415.996 201.588 416.31 201.658 416.613C203.079 422.737 203.855 428.954 204.292 435.214C204.525 438.553 204.608 441.903 204.818 445.244C205.06 449.099 205.36 452.951 205.658 456.802C205.687 457.179 205.526 457.664 206.088 457.952C206.833 455.524 206.943 453.043 207.183 450.569C207.764 444.563 207.73 438.57 207.135 432.57C206.559 426.766 204.804 421.323 202.187 416.137C202.086 415.939 201.895 415.786 201.455 415.272ZM233.991 277.459C233.07 280.122 232.241 282.348 231.533 284.613C230.811 286.919 230.86 289.26 231.396 291.731C233.781 289.236 236.02 286.894 238.259 284.552C238.318 284.49 238.398 284.435 238.43 284.361C238.59 283.976 238.879 283.581 238.868 283.197C238.77 279.775 237.375 276.946 234.879 274.516C233.057 275.412 231.757 276.789 230.43 278.1C229.033 279.479 229.121 280.818 230.563 282.494C231.731 281.015 231.985 278.908 233.991 277.459ZM257.339 279.583C255.939 279.823 254.636 280.448 253.352 281.117C253.21 281.191 253.077 281.333 253.005 281.476C252.933 281.618 252.862 281.868 252.932 281.952C253.074 282.122 253.363 282.357 253.502 282.309C254.285 282.037 255.041 281.689 255.795 281.371C256.723 282.097 256.884 283.047 257.066 283.951C257.675 286.97 258.236 289.999 258.829 293.021C258.9 293.384 258.772 293.881 259.34 294.007C260.349 288.62 259.511 282.415 257.339 279.583ZM185.788 379.971C185.008 381.234 184.914 382.578 185.089 383.968C185.445 386.788 186.041 389.544 186.987 392.235C187.798 394.539 189.043 396.572 190.507 398.493C190.746 398.806 190.96 399.241 191.842 398.986C188.558 393.04 186.628 386.703 185.788 379.971ZM231.395 333.221C230.836 334.494 231.072 335.452 231.606 336.351C231.975 336.972 232.58 337.38 233.309 337.211C233.86 337.083 234.409 336.781 234.859 336.428C235.319 336.067 235.693 335.565 235.441 334.733C234.302 334.058 232.98 333.598 231.395 333.221Z" fill="#C68F88"/>
<path d="M117.177 445.87C117.556 445.004 117.746 444.653 117.868 444.28C120.613 435.854 125.353 428.648 131.406 422.267C134.009 419.522 136.722 416.882 139.397 414.205C141.464 412.137 143.637 410.167 145.606 408.01C149.194 404.078 151.91 399.608 153.033 394.343C153.478 392.255 153.558 390.09 153.809 387.96C153.856 387.564 153.922 387.17 153.997 386.65C154.954 386.825 155.242 387.469 155.532 388.052C157.161 391.333 158.126 394.804 158.153 398.472C158.196 404.329 156.829 409.892 154.369 415.191C152.325 419.594 149.68 423.589 146.278 427.078C142.856 430.588 139.39 434.059 136.09 437.681C130.233 444.11 125.715 451.359 122.978 459.676C121.284 464.825 119.639 469.985 118.403 475.263C117.615 478.628 117.419 482.021 117.705 485.502C118.134 490.725 118.241 495.976 118.454 501.215C118.489 502.069 118.428 502.938 118.301 503.784C118.167 504.676 117.74 505.436 116.754 505.632C115.78 505.826 115.002 505.332 114.591 504.556C114.035 503.508 113.536 502.376 113.302 501.222C112.962 499.544 112.816 497.818 112.699 496.105C112.109 487.52 112.098 478.919 112.053 470.319C112.045 468.866 111.774 467.416 111.674 465.962C111.125 457.961 108.733 450.455 105.624 443.13C104.108 439.559 102.397 436.09 100.359 432.795C96.6938 426.871 92.9118 421.026 88.8438 415.362C84.6258 409.488 80.7948 403.363 77.7948 396.756C77.5108 396.132 77.2508 395.493 77.0358 394.843C76.8578 394.306 77.3738 393.788 77.9318 393.945C81.7338 395.017 85.5688 395.99 89.3228 397.212C96.4078 399.518 101.447 404.281 104.766 410.845C107.381 416.018 109.103 421.485 109.782 427.29C110.131 430.268 110.902 433.197 111.489 436.147C111.605 436.731 111.748 437.311 112.046 437.896C112.046 437.272 112.101 436.643 112.037 436.026C111.474 430.537 111.755 425.025 111.546 419.527C111.34 414.116 111.01 408.709 110.766 403.299C110.665 401.066 110.62 398.829 110.597 396.594C110.559 392.896 110.613 389.196 110.532 385.499C110.379 378.45 110.166 371.402 109.963 364.354C109.869 361.089 109.633 357.824 109.655 354.561C109.676 351.297 109.905 348.033 110.109 344.773C110.21 343.169 109.796 341.869 108.929 340.451C107.937 338.83 106.811 337.724 105.102 336.915C102.972 335.906 101.397 334.148 100.109 332.171C99.7808 331.668 99.4418 331.16 99.1988 330.614C95.7818 322.937 93.1498 315.077 93.5508 306.501C93.8588 299.914 95.7808 293.832 99.1928 288.211C99.6758 287.416 100.131 286.356 101.19 286.384C102.45 286.417 102.569 287.731 103.048 288.598C103.533 289.475 103.573 290.568 104.363 291.476C105.819 290.15 106.519 288.289 108.161 287.054C108.959 287.957 109.676 288.769 110.496 289.697C110.992 289.267 111.443 288.906 111.859 288.508C112.667 287.737 113.414 286.896 114.264 286.175C115.291 285.303 115.987 285.305 116.992 286.252C117.734 286.951 118.35 287.794 118.966 288.615C119.374 289.158 119.681 289.775 120.119 290.5C120.614 290.352 121.094 290.248 121.542 290.066C122.417 289.712 123.251 289.24 124.146 288.953C125.39 288.554 125.968 288.818 126.752 289.933C126.992 290.274 127.21 290.63 127.513 291.093C128.233 290.62 128.85 290.182 129.499 289.797C130.075 289.455 130.7 289.485 131.164 289.965C131.756 290.578 132.396 291.209 132.771 291.955C133.425 293.253 134.031 294.606 134.412 296.004C135.836 301.225 135.965 306.54 135.144 311.863C134.38 316.814 132.973 321.591 130.903 326.165C128.992 330.388 126.227 333.97 122.781 337.039C121.484 338.194 120.011 339.125 118.336 339.585C116.798 340.007 115.914 341.145 114.931 342.216C114.422 342.77 114.384 343.466 114.396 344.156C114.434 346.219 114.481 348.282 114.557 350.343C114.601 351.545 114.728 352.744 114.778 353.946C114.952 358.068 115.147 362.19 115.261 366.314C115.413 371.817 115.415 377.314 115.042 382.817C114.787 386.587 114.885 390.382 114.862 394.165C114.829 399.76 115.281 405.329 115.725 410.901C116.333 418.525 117.246 426.132 117.026 433.806C116.977 435.521 117.17 437.241 117.208 438.959C117.231 439.988 117.194 441.021 117.14 442.049C117.083 443.135 116.963 444.219 117.177 445.87ZM104.473 415.344C104.509 415.404 104.546 415.465 104.582 415.525C104.539 415.47 104.496 415.416 104.454 415.361C102.26 408.814 98.3158 403.682 92.1818 400.381C89.3688 398.868 86.3387 397.868 83.2717 397.001C82.9998 396.924 82.6718 397.045 82.1778 397.092C82.7718 398.247 83.6428 398.814 84.4788 399.362C87.4978 401.345 90.5258 403.316 93.5948 405.219C96.9908 407.325 100.019 409.823 102.469 413.001C103.095 413.814 103.803 414.564 104.473 415.344ZM108.462 336.242C108.235 334.998 108.151 334.414 108.021 333.841C107.363 330.934 107.508 328.045 108.11 325.144C108.758 322.018 109.693 318.996 110.929 316.049C111.691 314.233 112.324 312.346 112.827 310.441C113.67 307.249 113.953 304.011 113.068 300.756C112.049 297.008 110.656 293.408 108.831 289.98C108.654 289.647 108.271 289.423 107.97 289.136C107.656 289.412 107.41 289.545 107.284 289.752C103.218 296.389 99.9008 303.335 98.3308 311.031C97.7048 314.099 97.5748 317.18 97.8618 320.268C98.1918 323.816 99.2338 327.172 101.094 330.241C101.293 330.569 101.587 330.839 102.094 331.44C102.036 330.771 102.062 330.519 101.987 330.302C100.74 326.682 100.383 322.932 100.266 319.136C100.173 316.114 100.468 313.12 100.877 310.142C101.311 306.987 102.079 303.897 103.249 300.923C103.357 300.648 103.409 300.24 104.026 300.401C103.977 300.795 103.981 301.218 103.868 301.607C102.759 305.415 102.084 309.296 101.69 313.244C101.207 318.086 101.538 322.874 102.599 327.59C103.226 330.377 104.494 332.94 106.559 335.004C106.951 335.394 107.499 335.625 108.462 336.242ZM116.689 336.862C116.932 336.979 117.017 337.059 117.074 337.042C117.397 336.947 117.743 336.878 118.028 336.711C120.173 335.451 121.747 333.63 122.745 331.393C123.617 329.44 124.397 327.42 124.952 325.358C126.003 321.451 126.629 317.456 126.643 313.396C126.659 308.413 126.62 303.43 126.572 298.448C126.566 297.809 126.741 297.044 125.991 296.621C125.81 296.665 125.627 296.672 125.487 296.754C125.268 296.883 125.067 297.051 124.879 297.224C122.301 299.599 120.406 302.437 119.265 305.748C118.034 309.321 116.887 312.923 115.672 316.501C114.871 318.859 113.97 321.184 113.19 323.549C111.926 327.383 111.974 331.33 112.329 335.289C112.374 335.795 112.513 336.31 112.709 336.779C112.855 337.131 113.162 337.416 113.506 337.877C114.051 337.337 114.504 336.963 114.865 336.515C116.335 334.687 117.278 332.561 118.185 330.424C119.565 327.173 120.597 323.809 121.354 320.359C121.438 319.978 121.395 319.468 121.977 319.392C122.099 319.504 122.322 319.618 122.314 319.714C121.816 325.875 119.224 331.374 116.689 336.862ZM111.064 445.789C111.038 445.196 111.044 444.599 110.98 444.009C110.349 438.183 109.199 432.467 107.564 426.832C105.156 418.531 100.277 412.121 93.1228 407.378C89.9688 405.288 86.7908 403.233 83.6178 401.173C83.3528 401.001 83.0578 400.722 82.6168 401.157C82.8298 401.483 83.0248 401.856 83.2898 402.172C85.0598 404.278 86.8008 406.41 88.6358 408.458C90.9308 411.019 93.3168 413.499 95.6478 416.03C98.0568 418.646 99.9338 421.621 101.447 424.828C101.642 425.242 102.04 425.723 101.365 426.304C100.187 425.408 99.6398 424.025 98.8338 422.849C98.0068 421.644 97.2248 420.407 96.3548 419.233C95.4338 417.99 94.4698 416.775 93.4578 415.606C92.5018 414.501 91.4548 413.476 90.4568 412.407C89.4818 411.362 88.5188 410.306 87.5498 409.254C87.7538 410.23 88.2298 411.001 88.7478 411.742C91.4108 415.545 94.1718 419.283 96.7368 423.152C100.921 429.464 104.899 435.904 107.767 442.957C107.839 443.135 108.049 443.257 108.523 443.739C108.07 442.246 107.774 441.184 107.425 440.14C107.071 439.08 106.683 438.031 106.277 436.989C105.871 435.947 105.383 434.937 105.011 433.884C104.655 432.877 103.897 431.984 103.925 430.749C104.23 430.873 104.446 430.89 104.518 431C107.489 435.572 109.105 440.733 111.064 445.789ZM116.084 502.608C116.958 501.46 116.697 500.319 116.634 499.253C116.396 495.221 116.009 491.195 115.85 487.161C115.55 479.515 115.244 471.865 115.17 464.214C115.073 454.238 115.141 444.259 115.248 434.282C115.324 427.214 114.552 420.205 114.055 413.175C113.716 408.374 113.347 403.571 113.193 398.763C113.047 394.209 113.139 389.647 113.177 385.089C113.195 382.94 113.362 380.794 113.41 378.645C113.48 375.466 113.622 372.283 113.524 369.108C113.288 361.46 112.93 353.816 112.624 346.171C112.593 345.398 112.603 344.623 112.547 343.852C112.531 343.636 112.349 343.432 112.132 343C111.864 343.405 111.594 343.637 111.557 343.901C111.438 344.749 111.351 345.609 111.348 346.465C111.322 352.999 111.168 359.529 111.565 366.066C111.956 372.501 112.116 378.953 112.232 385.4C112.372 393.137 112.368 400.872 112.74 408.608C113.123 416.593 113.175 424.595 113.375 432.589C113.39 433.191 113.425 433.792 113.452 434.393C113.577 437.14 113.767 439.887 113.811 442.636C113.873 446.42 113.857 450.205 113.817 453.989C113.692 465.946 114.066 477.895 114.416 489.843C114.502 492.763 114.736 495.681 114.962 498.594C115.042 499.618 115.279 500.633 115.499 501.639C115.566 501.934 115.822 502.186 116.084 502.608ZM117.359 472.051C118.126 470.585 118.206 469.312 118.324 468.028C118.545 465.635 118.707 463.223 119.141 460.864C121.738 446.74 127.221 433.912 136.465 422.804C139.819 418.774 143.156 414.729 146.504 410.693C150.212 406.223 153.289 401.39 155.086 395.818C155.27 395.246 155.498 394.675 155.576 394.086C155.653 393.503 155.629 392.889 155.536 392.307C155.442 391.717 155.418 391.039 154.773 390.602C154.606 392.015 154.528 393.306 154.292 394.566C153.37 399.495 151.073 403.785 148.038 407.714C145.874 410.515 143.354 412.99 140.729 415.339C137.131 418.559 133.847 422.073 130.67 425.69C128.17 428.535 125.922 431.578 124.031 434.873C120.789 440.519 118.415 446.496 117.529 452.965C116.698 459.03 116.852 465.144 117.042 471.248C117.048 471.403 117.159 471.554 117.359 472.051ZM156.185 395.985C155.679 397.219 155.365 397.885 155.129 398.578C154.152 401.444 152.853 404.154 151.093 406.616C149.445 408.921 147.754 411.201 145.984 413.413C143.514 416.499 140.93 419.493 138.433 422.558C133.419 428.715 129.033 435.252 125.958 442.633C123.735 447.968 121.921 453.413 120.729 459.064C120.649 459.445 120.286 459.958 120.963 460.336C121.27 459.49 121.566 458.689 121.852 457.885C123.121 454.31 124.598 450.819 126.703 447.659C128.627 444.77 129.982 441.67 131.11 438.399C133.517 431.418 137.195 425.136 142.124 419.616C144.929 416.476 147.808 413.402 150.597 410.248C152.771 407.789 154.563 405.064 155.886 402.046C156.665 400.266 156.64 398.456 156.185 395.985ZM132.905 438.608C133.333 438.179 133.753 437.782 134.146 437.361C135.784 435.607 137.394 433.826 139.053 432.092C140.95 430.109 142.912 428.188 144.805 426.202C149.747 421.018 153.289 415.024 155.173 408.087C155.278 407.698 155.323 407.293 155.396 406.895C154.844 407.055 154.59 407.369 154.335 407.681C152.82 409.539 151.356 411.443 149.775 413.244C147.909 415.37 145.935 417.4 144.022 419.485C139.272 424.663 135.76 430.624 132.998 437.049C132.818 437.471 132.383 437.926 132.905 438.608ZM125.184 290.855C123.217 291.12 121.949 291.635 120.477 292.849C118.321 294.628 116.737 296.857 115.488 299.34C115.083 300.144 115.07 300.957 115.201 301.841C115.569 304.325 115.454 306.799 114.955 309.269C114.424 311.897 113.568 314.409 112.451 316.834C111.003 319.978 110.077 323.268 109.483 326.671C109.031 329.262 109.202 331.808 109.82 334.334C109.974 334.963 110.092 335.68 110.985 336.16C110.918 335.52 110.889 335.036 110.814 334.56C110.504 332.591 110.553 330.623 110.789 328.653C111.148 325.652 111.931 322.763 112.962 319.924C113.871 317.423 114.655 314.877 115.508 312.356C116.388 309.753 117.253 307.145 118.183 304.56C119.378 301.241 121.474 298.557 124.171 296.319C124.567 295.99 125.044 295.728 125.355 295.334C125.652 294.958 125.956 294.448 125.953 293.999C125.946 292.9 125.77 291.8 125.184 290.855ZM131.658 293.586C131.524 294.19 131.437 294.362 131.459 294.518C131.908 297.688 131.674 300.847 131.497 304.028C131.247 308.527 130.381 312.878 129.084 317.17C128.165 320.21 127.344 323.281 126.379 326.306C125.807 328.099 125.033 329.828 124.372 331.594C124.257 331.902 123.776 332.212 124.313 332.667C126.718 329.982 128.468 326.96 129.734 323.643C130.992 320.346 131.964 316.964 132.736 313.522C133.9 308.335 133.915 303.135 132.916 297.923C132.659 296.584 132.458 295.232 131.658 293.586ZM101.457 289.178C100.052 290.341 99.0508 292.027 97.7888 295.404C95.5218 301.468 94.8248 307.699 95.9598 314.115C96.4828 311.373 97.2948 308.702 97.2118 305.839C97.1018 302.041 97.8378 298.325 98.8288 294.668C98.9288 294.297 99.2158 293.977 99.7178 293.115C99.7648 296.442 98.7908 299.079 98.8908 301.827C99.0838 301.777 99.2148 301.78 99.2388 301.731C100.333 299.499 101.446 297.275 102.48 295.015C102.716 294.5 102.839 293.827 102.731 293.283C102.468 291.955 102.345 290.56 101.457 289.178ZM128.381 313.597C130.268 308.59 131.009 295.808 129.775 291.993C129.546 292.036 129.275 292.02 129.078 292.133C127.718 292.909 127.749 294.163 127.88 295.507C128.448 301.315 128.863 307.13 128.381 313.597ZM115.074 296.481C115.979 295.768 116.357 294.894 116.865 294.154C117.432 293.328 118.324 292.694 118.503 291.523C117.769 289.777 116.928 288.059 115.28 286.703C113.712 288.025 112.716 289.597 111.806 291.232C111.689 291.441 111.597 291.758 111.67 291.962C111.955 292.761 112.281 293.549 112.651 294.313C112.85 294.724 112.901 295.345 113.79 295.28C113.903 294.58 114.02 293.841 114.141 293.103C114.254 292.411 114.02 291.61 114.817 290.865C115.76 292.754 114.863 294.53 115.074 296.481ZM110.119 339.191C111.592 340.588 111.839 340.75 112.88 340.712C113.271 340.697 113.733 340.537 113.517 339.809C112.547 339.588 111.598 339.04 110.119 339.191Z" fill="#C68F88"/>
<path d="M274.354 35.6058C274.922 37.6828 274.744 39.5949 275.095 41.4329C275.443 43.2589 275.7 45.1058 276.372 47.2138C278.838 44.4058 280.45 41.2348 284.003 39.8068C284.165 40.4738 284.379 40.9408 284.372 41.4038C284.345 43.2078 284.209 45.0108 284.185 46.8158C284.128 51.0278 284.174 55.2408 284.063 59.4508C283.939 64.1778 283.851 68.9168 283.061 73.5948C282.061 79.5138 279.659 84.7468 275.348 89.0268C273.74 90.6228 271.935 91.9068 269.852 92.8008C267.888 93.6428 266.981 95.3628 266.911 97.2738C266.647 104.504 265.894 111.681 264.991 118.85C264.658 121.496 264.395 124.151 264.03 126.793C263.384 131.478 262.682 136.155 262.011 140.836C261.892 141.664 261.807 142.497 261.691 143.45C261.921 143.228 262.087 143.14 262.139 143.007C263.712 138.985 265.916 135.288 268.017 131.535C269.911 128.152 271.578 124.663 272.728 120.945C274.187 116.231 275.059 111.43 274.949 106.475C274.918 105.1 274.893 103.723 274.924 102.348C274.94 101.668 275.054 100.984 275.201 100.319C275.242 100.133 275.546 99.9049 275.75 99.8809C275.957 99.8578 276.266 100.007 276.396 100.182C276.648 100.522 276.85 100.916 276.993 101.315C277.43 102.529 277.908 103.736 278.229 104.981C279.821 111.154 281.15 117.383 281.408 123.774C281.89 135.724 278.994 146.785 272.431 156.828C270.104 160.389 267.133 163.369 263.86 166.062C261.868 167.701 259.92 169.396 257.887 170.983C256.579 172.005 256.015 173.287 255.693 174.893C254.342 181.636 252.871 188.355 251.429 195.08C249.482 204.16 247.33 213.207 246.407 222.467C245.784 228.711 245.408 234.98 244.889 241.234C244.733 243.118 244.524 245.003 244.228 246.87C244.082 247.791 243.783 248.719 243.375 249.558C242.795 250.752 241.37 250.734 240.729 249.545C240.41 248.953 240.179 248.27 240.092 247.605C239.949 246.501 239.872 245.375 239.91 244.263C240.224 234.96 241.605 225.768 242.852 216.562C243.812 213.536 243.613 210.465 243.315 207.365C242.904 203.079 242.393 198.821 241.317 194.637C240.151 190.106 238.245 185.886 236.208 181.702C233.159 175.438 230.024 169.208 227.209 162.839C223.453 154.343 221.364 145.406 221.03 136.094C220.784 129.249 222.024 122.737 225.521 116.767C226.213 115.585 227.056 114.487 227.888 113.396C228.108 113.107 228.548 112.985 229.127 112.647C229.219 113.299 229.349 113.695 229.315 114.077C229.209 115.276 229.027 116.468 228.902 117.666C228.439 122.089 228.863 126.407 230.292 130.641C232.058 135.874 234.316 140.886 236.841 145.786C238.892 149.767 240.767 153.822 242.287 158.04C245.844 167.912 247.974 178.045 247.963 188.58C247.962 189.426 248.059 190.272 248.4 191.139C249.316 186.689 250.289 182.251 251.132 177.787C252.265 171.789 253.121 165.733 254.411 159.771C256.745 148.988 257.933 138.044 259.381 127.133C260.014 122.36 260.874 117.616 261.441 112.836C261.998 108.141 262.305 103.417 262.743 98.7068C262.834 97.7278 262.747 96.8528 262.071 96.0548C261.633 95.5378 261.343 94.8958 260.949 94.2458C260.401 94.0948 259.828 93.9338 259.252 93.7788C251.641 91.7398 245.847 87.3398 241.95 80.4708C237.422 72.4908 235.879 63.9168 236.841 54.8438C237.287 50.6408 238.078 46.5068 239.407 42.4898C239.784 41.3508 240.282 40.2478 240.796 39.1628C240.954 38.8278 241.348 38.6048 241.782 38.1888C243.153 40.7668 244.43 43.1658 245.848 45.8318C246.388 44.9458 246.123 44.2718 246.178 43.6578C246.232 43.0588 246.242 42.4558 246.28 41.8548C246.323 41.1678 246.389 40.4819 246.418 39.7949C246.443 39.1939 246.416 38.5908 246.438 37.9898C246.463 37.3028 246.441 36.6008 246.583 35.9368C246.701 35.3838 247.025 34.8748 247.291 34.2718C249.229 34.8478 250.445 36.2388 251.855 37.3018C253.274 38.3708 254.579 39.5909 256.119 40.9029C256.496 39.6159 256.809 38.5658 257.11 37.5118C257.728 35.3478 258.626 33.3068 259.808 31.3938C260.124 30.8818 260.451 30.3728 260.822 29.9008C261.742 28.7338 262.207 28.7108 263.299 29.7728C264.162 30.6128 264.979 31.4998 265.851 32.3298C267.434 33.8378 268.612 35.6158 269.487 37.6078C269.761 38.2328 270.039 38.8548 270.298 39.4378C271.201 39.5868 271.349 38.8778 271.698 38.4368C272.426 37.5138 272.829 36.3018 274.354 35.6058ZM235.213 156.215C235.7 157.022 236.238 157.803 236.664 158.641C238.068 161.408 239.177 164.294 240.138 167.245C242.889 175.698 244.793 184.331 245.773 193.169C245.846 193.823 245.768 194.534 246.36 195.269C246.433 194.252 246.546 193.403 246.543 192.555C246.535 190.492 246.465 188.429 246.434 186.366C246.277 176.08 243.892 166.252 240.116 156.755C238.658 153.089 236.845 149.553 235.039 146.038C232.518 141.131 230.243 136.133 228.574 130.865C227.736 128.219 227.216 125.523 227.25 122.752C227.269 121.209 227.507 119.67 227.623 118.127C227.645 117.83 227.832 117.418 227.197 117.277C225.428 119.933 224.382 122.91 223.758 126.037C223.612 126.768 223.75 127.583 223.882 128.338C224.297 130.709 224.721 133.081 225.232 135.433C227.153 144.289 229.793 152.897 233.921 161.014C235.086 163.306 236 165.736 236.899 168.151C240.757 178.524 243.162 189.24 244.348 200.238C244.477 201.429 244.708 202.61 244.891 203.796C244.915 204.011 244.939 204.225 244.907 203.933C244.992 204.216 244.931 204.013 244.87 203.81C244.888 202.522 245.027 201.223 244.903 199.949C244.479 195.588 244.11 191.214 243.453 186.885C241.926 176.821 239.516 166.987 235.263 157.678C235.086 157.291 234.997 156.864 234.867 156.455C234.98 156.375 235.097 156.295 235.213 156.215ZM248.37 36.4898C247.858 37.9738 247.881 39.0808 247.83 40.1798C247.657 43.9528 247.548 47.7318 247.272 51.4978C246.786 58.1268 246.952 64.7198 248.208 71.2538C249.103 75.9058 250.468 80.4178 252.473 84.7328C254.227 88.5058 257.264 90.6948 261.067 91.9968C262.05 92.3328 262.637 92.0098 262.724 91.0328C262.853 89.5828 262.995 88.1099 262.882 86.6659C262.607 83.1579 262.2 79.6598 261.825 76.1598C261.267 70.9408 260.859 65.7308 261.776 60.4998C262.167 58.2708 261.887 56.0478 261.212 53.8808C259.92 49.7288 257.978 45.9308 255.109 42.6378C253.191 40.4358 251.019 38.5148 248.37 36.4898ZM264.08 91.8688C264.406 92.0078 264.644 92.2028 264.871 92.1908C267.27 92.0658 269.421 91.3728 271.048 89.4658C272.578 87.6718 273.611 85.6048 274.473 83.4368C276.278 78.8958 276.959 74.1168 277.096 69.2938C277.278 62.8348 276.769 56.4098 275.466 50.0538C274.776 46.6878 274.303 43.2779 273.719 39.8899C273.668 39.5919 273.755 39.1548 273.137 39.1338C272.963 39.3528 272.73 39.5988 272.552 39.8798C269.12 45.2798 266.396 51.0168 264.424 57.1028C263.113 61.1478 262.462 65.2978 262.754 69.5598C262.953 72.4758 263.146 75.3948 263.455 78.2998C263.893 82.4088 264.329 86.5108 263.946 90.6508C263.907 91.0558 264.032 91.4768 264.08 91.8688ZM241.475 41.1738C241.096 42.0848 240.773 42.6668 240.608 43.2898C239.243 48.4458 238.012 53.6088 237.985 59.0098C237.957 64.6798 238.817 70.1508 241.01 75.3798C243.397 81.0718 246.976 85.8128 252.3 89.0958C252.627 89.2978 252.952 89.7098 253.441 89.4118C253.398 89.2388 253.405 89.0398 253.311 88.9218C251.4 86.5238 250.302 83.7148 249.318 80.8678C246.299 72.1378 245.178 63.1438 245.776 53.9368C245.895 52.0998 245.657 50.3478 245.111 48.6008C244.31 46.0378 242.793 43.8538 241.475 41.1738ZM276.786 105.852C276.678 107.647 276.732 109.47 276.431 111.232C275.616 116 275.59 120.822 275.427 125.621C275.256 130.658 274.411 135.541 272.911 140.312C270.353 148.448 266.088 155.493 259.324 160.868C259.059 161.078 258.779 161.316 258.624 161.605C258.437 161.952 258.221 162.383 258.711 162.702C258.811 162.699 258.907 162.722 258.975 162.688C259.204 162.574 259.442 162.464 259.644 162.31C265.483 157.85 270.184 152.464 273.159 145.677C273.573 144.733 273.951 143.772 274.383 142.837C274.496 142.592 274.597 142.156 275.187 142.474C274.826 144.305 274.153 146.053 273.387 147.767C270.437 154.365 265.838 159.617 260.125 163.954C259.577 164.37 258.981 164.728 258.466 165.18C257.442 166.081 257.117 167.391 257.56 168.953C258.879 167.89 260.145 166.876 261.403 165.853C265.563 162.47 269.324 158.725 272.137 154.105C275.764 148.147 277.955 141.667 279.156 134.834C280.377 127.887 279.975 120.958 278.757 114.053C278.265 111.271 277.749 108.493 276.786 105.852ZM264.787 97.6248C264.592 97.6278 264.397 97.6308 264.202 97.6328C264.085 98.1938 263.899 98.7508 263.863 99.3168C263.692 101.976 263.662 104.647 263.397 107.295C262.941 111.829 262.417 116.358 261.795 120.871C260.892 127.427 259.87 133.967 258.913 140.515C258.465 143.578 258.136 146.66 257.604 149.708C256.288 157.242 254.889 164.761 253.518 172.285C252.855 175.92 252.274 179.574 251.491 183.183C250.069 189.732 248.596 196.273 247.01 202.784C245.236 210.063 244.117 217.459 243.065 224.856C242.291 230.295 241.975 235.801 241.531 241.284C241.4 242.905 241.493 244.549 241.562 246.179C241.58 246.606 241.471 247.256 242.36 247.411C242.511 246.776 242.741 246.142 242.803 245.493C243.111 242.243 243.357 238.988 243.657 235.737C244.811 223.232 246.223 210.765 249.181 198.525C249.685 196.438 250.049 194.317 250.495 192.216C251.546 187.257 252.649 182.308 253.655 177.34C254.831 171.529 255.962 165.708 257.045 159.879C258.003 154.726 259.059 149.58 259.738 144.387C261.531 130.661 263.146 116.911 264.818 103.169C264.963 101.976 265.057 100.771 265.077 99.5698C265.085 98.9238 264.889 98.2738 264.787 97.6248ZM262.185 30.6128C261.868 30.8818 261.625 31.0068 261.5 31.2068C259.907 33.7658 258.62 36.4638 257.776 39.3708C257.243 41.2078 257.377 42.8108 258.556 44.4598C260.616 47.3398 262.028 50.5628 262.835 54.0318C262.903 54.3248 263.057 54.5978 263.185 54.9138C263.394 54.7708 263.499 54.7388 263.526 54.6738C265.135 50.8888 266.68 47.0748 268.691 43.4738C269.128 42.6918 269.208 41.8298 268.992 40.9748C268.783 40.1468 268.549 39.3118 268.209 38.5318C266.85 35.4088 264.442 33.0998 262.185 30.6128ZM240.112 186.528C240.257 186.455 240.403 186.382 240.548 186.309C240.348 185.329 240.179 184.341 239.943 183.37C237.995 175.335 235.73 167.409 231.993 159.98C227.911 151.864 225.039 143.336 223.388 134.399C223.33 134.087 223.183 133.791 222.894 132.961C222.496 135.567 222.752 137.611 222.922 139.642C223.637 148.21 225.826 156.415 229.428 164.202C232.785 171.457 236.365 178.61 239.842 185.809C239.955 186.039 240.024 186.288 240.112 186.528ZM275.138 86.0298C275.337 86.0538 275.449 86.0998 275.482 86.0668C275.723 85.8268 275.968 85.5868 276.175 85.3168C279.117 81.4778 280.796 77.1269 281.523 72.3638C282.225 67.7649 282.279 63.1228 282.558 58.4958C282.667 56.6978 282.669 54.8908 282.654 53.0888C282.627 49.9978 282.536 46.9068 282.919 43.8268C282.968 43.4328 283.117 42.9628 282.432 42.6068C280.762 44.1178 279.246 45.8368 277.864 47.6928C277.043 48.7948 276.79 49.9068 277.06 51.2978C278.261 57.4718 278.688 63.7048 278.52 70.0038C278.4 74.5238 277.53 78.8648 276.215 83.1478C275.918 84.1158 275.508 85.0488 275.138 86.0298ZM259.395 157.928C259.579 158.017 259.762 158.106 259.946 158.194C261.026 157.111 262.175 156.089 263.173 154.935C268.405 148.891 271.69 141.889 273.062 134.035C273.636 130.746 273.871 127.397 274.228 124.071C274.274 123.647 274.537 123.15 274.047 122.621C272.488 126.656 270.708 130.456 268.522 134.049C264.925 139.963 262.451 146.336 260.645 152.99C260.201 154.628 259.81 156.281 259.395 157.928ZM266.059 94.5048C266.029 94.3428 265.999 94.1808 265.969 94.0178C265.57 94.0218 265.17 94.0039 264.773 94.0359C264.368 94.0678 263.918 94.0838 263.825 94.6228C263.756 95.0198 264.418 95.3109 265.016 95.0919C265.386 94.9558 265.713 94.7048 266.059 94.5048Z" fill="#C68F88"/>
<path d="M234.865 156.456C234.672 156.126 234.479 155.796 234.225 155.363C235.093 155.246 235.02 155.865 235.213 156.217C235.097 156.295 234.98 156.375 234.865 156.456Z" fill="#C68F88"/>
<path d="M172.29 216.839C172.504 215.925 172.723 215.012 172.932 214.097C174.436 207.535 176.772 201.244 179.205 194.989C181.076 190.179 183.13 185.44 184.978 180.622C188.768 170.74 191.014 160.541 190.986 149.905C190.975 145.851 190.362 141.85 189.919 137.834C189.835 137.074 189.521 136.341 189.341 135.589C189.104 134.599 188.72 133.623 188.887 132.653C189.437 132.119 189.981 132.173 190.326 132.61C191.334 133.887 192.43 135.137 193.183 136.561C194.184 138.453 194.996 140.463 195.708 142.487C197.454 147.447 198.806 152.495 199.167 157.788C199.395 161.13 199.962 164.447 200.273 167.785C200.985 175.416 201.283 183.053 200.525 190.707C199.594 200.119 196.419 208.776 191.871 216.992C189.705 220.905 187.523 224.811 185.436 228.767C184.193 231.123 183.114 233.567 181.971 235.975C180.333 239.424 179.413 243.086 178.74 246.825C178.567 247.787 178.605 248.682 178.947 249.605C180.532 253.876 181.992 258.196 183.675 262.427C185.796 267.762 189.172 272.325 192.817 276.712C194.629 278.893 196.319 281.177 198.013 283.452C198.573 284.205 199.002 285.062 199.438 285.899C199.673 286.351 199.861 286.848 199.959 287.347C200.28 288.973 199.356 290.122 197.725 290.003C196.89 289.942 196.038 289.67 195.263 289.335C193.668 288.646 192.328 287.559 191.071 286.369C187.923 283.385 185.391 279.931 183.199 276.202C179.563 270.016 176.876 263.419 174.518 256.665C171.53 248.105 169.632 239.29 168.19 230.361C167.971 229.006 167.955 227.469 167.267 226.382C166.583 225.3 165.201 224.636 164.076 223.861C158.625 220.107 154.133 215.411 150.341 210.012C146.264 204.207 142.926 198.013 140.628 191.295C139.767 188.779 139.037 186.204 138.468 183.607C137.769 180.417 137.278 177.179 136.738 173.955C135.865 168.746 134.381 163.739 131.953 159.03C131.796 158.725 131.653 158.41 131.535 158.088C131.479 157.935 131.5 157.754 131.486 157.579C131.876 156.969 132.378 157.192 132.814 157.465C135.369 159.062 137.865 160.741 140.054 162.835C146.553 169.052 151.396 176.405 154.981 184.615C156.739 188.64 158.094 192.81 159.373 197.009C160.976 202.272 162.623 207.522 164.281 212.768C164.587 213.738 165.039 214.662 165.423 215.606C166.147 215.351 165.931 214.868 165.874 214.502C165.337 211.103 164.768 207.709 164.223 204.311C162.672 194.629 161.001 184.964 159.624 175.258C158.658 168.453 157.953 161.604 157.742 154.718C157.658 151.969 157.447 149.224 157.316 146.476C157.286 145.85 157.144 145.311 156.697 144.84C155.929 144.032 155.201 143.187 154.459 142.361C154.294 142.302 154.13 142.186 153.974 142.195C148.35 142.527 142.985 141.277 137.913 139.057C129.983 135.587 124.49 129.572 121.163 121.635C119.117 116.754 118.055 111.638 118.144 106.299C118.19 103.55 117.984 100.797 118.001 98.0474C118.012 96.2484 118.089 94.4294 118.368 92.6564C118.828 89.7264 120.376 87.5584 123.321 86.6214C124.989 86.0914 126.466 85.2524 127.786 84.1104C128.109 83.8304 128.461 83.5534 128.848 83.3834C130.455 82.6754 131.783 81.7464 132.489 80.0104C132.856 79.1084 133.831 78.6954 134.747 78.4114C136.207 77.9584 137.339 77.1254 138.17 75.8344C138.492 75.3344 138.938 74.9094 139.356 74.4774C140.453 73.3444 141.805 72.7974 143.338 73.2154C145.264 73.7404 147.078 73.4844 148.9 72.8364C150.64 72.2174 152.281 72.3524 153.764 73.5524C154.028 73.7654 154.331 73.9294 154.717 74.1824C155.067 73.9874 155.455 73.8234 155.782 73.5804C158.118 71.8424 160.686 71.6634 163.389 72.4364C166.351 73.2834 168.909 74.8964 171.097 76.9934C176.147 81.8334 179.953 87.5164 181.993 94.2594C184.68 103.139 184.508 112.089 182.241 121.007C180.923 126.194 177.686 130.211 173.741 133.671C171.859 135.322 169.728 136.581 167.336 137.453C165.99 137.943 164.801 138.874 163.565 139.644C163.29 139.815 163.011 140.111 162.908 140.409C161.995 143.06 160.881 145.598 161.158 148.592C161.634 153.742 162.426 158.831 163.363 163.907C164.767 171.521 166.288 179.117 167.506 186.762C168.669 194.061 169.476 201.417 170.503 208.738C170.884 211.451 171.448 214.139 171.928 216.838C172.048 216.837 172.169 216.838 172.29 216.839ZM136.43 133.443C136.481 133.502 136.532 133.56 136.582 133.619C136.526 133.567 136.469 133.515 136.413 133.463C135.586 131.958 134.71 130.478 133.942 128.943C131.686 124.433 130.559 119.594 129.832 114.636C129.326 111.185 129.331 107.781 130.482 104.45C130.83 103.442 130.926 102.457 130.663 101.416C130.474 100.668 130.378 99.8964 130.235 99.1364C129.718 96.3934 129.893 93.6584 130.374 90.9344C130.457 90.4634 130.445 89.8814 131.419 89.5524C131.679 91.4704 131.091 93.2924 131.192 95.0994C131.295 96.9444 131.057 98.8354 132.055 100.751C132.586 100.366 133.001 100.101 133.376 99.7874C134.558 98.7974 135.903 98.3654 137.439 98.5174C137.866 98.5594 138.301 98.5374 138.725 98.5984C140.045 98.7894 140.816 98.1454 141.357 97.0134C141.91 95.8544 142.357 94.5684 143.185 93.6344C144.273 92.4064 144.134 91.3524 143.391 90.1444C142.898 89.3414 142.453 88.4994 141.884 87.7544C141.011 86.6124 139.831 85.8884 138.366 85.8704C136.593 85.8484 134.998 85.3294 133.465 84.4824C132.305 83.8424 131.145 83.9924 130.05 84.7064C129.762 84.8944 129.462 85.0704 129.204 85.2944C127.56 86.7204 125.71 87.7804 123.648 88.4744C121.659 89.1434 120.503 90.5774 120.168 92.5824C119.886 94.2684 119.725 95.9894 119.69 97.6984C119.635 100.359 119.76 103.024 119.757 105.686C119.752 110.012 120.314 114.224 121.658 118.368C123.95 125.433 128.229 130.941 134.247 135.178C134.637 135.453 135.087 135.643 135.509 135.872C135.214 134.98 134.713 134.324 134.17 133.704C131.486 130.638 129.392 127.211 127.759 123.482C125.396 118.086 123.964 112.446 123.181 106.622C122.719 103.184 122.826 99.7664 123.429 96.3584C123.483 96.0534 123.63 95.7654 123.766 95.3794C124.397 96.0464 124.09 96.6584 124.044 97.2234C123.841 99.7124 123.724 102.205 124.07 104.682C124.653 108.854 125.372 112.996 126.734 117.009C128.516 122.26 130.826 127.217 134.418 131.495C135.015 132.208 135.756 132.797 136.43 133.443ZM156.637 89.2384C157.529 90.4694 158.254 91.3964 158.896 92.3784C159.554 93.3844 160.154 94.4304 160.734 95.4834C161.356 96.6124 161.962 97.7544 162.504 98.9224C162.993 99.9754 163.671 100.985 163.689 102.24C162.712 102.302 162.618 101.57 162.346 101.091C160.861 98.4744 159.439 95.8214 157.933 93.2164C157.377 92.2554 156.7 91.3514 155.985 90.4994C155.627 90.0724 155.063 89.8174 154.671 89.5404C153.06 90.0944 152.054 91.1784 150.971 92.1504C149.839 93.1664 148.573 93.8454 147.006 93.6824C145.472 93.5224 144.585 94.3454 143.963 95.5864C143.578 96.3544 143.247 97.1494 142.902 97.9364C142.476 98.9114 141.847 99.6964 140.891 100.207C140.522 100.404 140.188 100.664 139.85 100.887C139.427 104.421 139.621 107.837 140.331 111.223C140.772 113.326 141.307 115.408 141.778 117.505C141.847 117.81 141.944 118.219 141.273 118.287C140.603 117.243 140.324 115.983 139.936 114.79C138.476 110.306 138.419 105.676 138.8 101.105C137.322 100.446 137.048 100.408 136.214 100.565C135.411 100.716 134.792 101.142 134.28 101.754C133.039 103.237 132.283 104.944 131.865 106.826C131.354 109.129 131.508 111.434 131.683 113.755C132.111 119.411 133.675 124.741 136.295 129.748C138.076 133.151 140.455 136.066 143.873 137.988C144.191 138.167 144.515 138.593 144.978 138.204C138.647 132.252 134.798 122.666 135.526 117.138C135.72 117.926 135.872 118.408 135.955 118.902C136.768 123.751 138.858 128.06 141.599 132.073C144.317 136.052 148.085 138.653 152.623 140.175C153.003 140.302 153.453 140.461 153.719 139.865C153.583 139.677 153.461 139.449 153.285 139.276C149.049 135.098 146.145 130.058 143.825 124.644C143.681 124.308 143.427 123.886 143.987 123.496C144.793 124.421 145.203 125.56 145.738 126.614C147.46 130.005 149.578 133.131 151.985 136.062C152.893 137.167 153.831 138.271 155.157 138.989C155.249 138.753 155.327 138.651 155.302 138.605C155.056 138.153 154.802 137.706 154.534 137.267C151.088 131.625 149.08 125.415 147.456 119.071C146.946 117.08 146.745 115.009 146.437 112.969C146.38 112.59 146.333 112.095 146.957 112.054C147.029 112.124 147.129 112.176 147.145 112.246C147.317 112.999 147.504 113.75 147.632 114.51C148.508 119.707 149.987 124.726 152.078 129.561C153.412 132.646 154.963 135.617 157.033 138.284C158.389 140.031 158.661 140.054 160.715 139.147C161.701 138.712 162.422 138.052 163.033 137.182C164.184 135.543 164.916 133.726 165.586 131.854C167.844 125.541 168.442 119.136 166.851 112.577C166.689 111.91 166.568 111.23 166.477 110.55C166.45 110.352 166.592 110.131 166.654 109.93C167.417 110.036 167.464 110.621 167.586 111.085C169.032 116.574 169.476 122.103 167.994 127.654C167.374 129.976 166.576 132.251 165.861 134.548C165.741 134.935 165.427 135.322 165.838 135.721C167.779 134.724 168.911 133.647 170.045 131.769C171.981 128.565 172.705 125.061 172.432 121.377C172.158 117.68 171.404 114.046 170.353 110.498C168.935 105.709 167.033 101.092 164.815 96.6214C164.021 95.0194 162.958 93.5294 161.867 92.1034C160.865 90.7944 159.533 89.8174 157.913 89.3314C157.63 89.2444 157.306 89.2814 156.637 89.2384ZM178.476 239.248C178.887 238.693 179.023 238.573 179.08 238.422C181.023 233.255 183.571 228.377 186.194 223.535C188.16 219.906 190.243 216.336 192.107 212.656C195.034 206.879 197.292 200.856 198.358 194.423C199.447 187.851 199.552 181.248 199.163 174.622C199.126 173.997 198.952 173.38 198.841 172.76C198.541 173.279 198.454 173.776 198.433 174.276C198.262 178.416 197.59 182.488 196.706 186.523C196.247 188.619 195.613 190.679 195.009 192.741C194.881 193.176 194.541 193.55 194.286 193.972C193.688 193.529 193.864 193.072 193.94 192.678C194.215 191.243 194.468 189.799 194.843 188.388C196.642 181.621 197.565 174.732 197.729 167.742C197.789 165.167 197.935 162.562 197.646 160.016C196.819 152.726 195.202 145.609 192.273 138.839C192.045 138.312 191.975 137.669 191.21 137.313C191.405 138.408 191.56 139.412 191.765 140.405C192.411 143.533 192.621 146.706 192.768 149.886C192.863 151.947 192.949 154.008 193.074 156.067C193.199 158.126 193.42 160.179 193.506 162.239C193.9 171.628 192.684 180.786 189.302 189.585C187.112 195.283 184.762 200.921 182.485 206.586C180.785 210.817 179.191 215.085 177.978 219.487C176.316 225.521 175.95 231.685 176.17 237.897C176.212 239.085 176.585 240.262 176.832 241.438C176.852 241.535 177.076 241.589 177.359 241.75C177.364 240.666 177.35 239.663 177.376 238.661C177.536 232.566 178.879 226.701 181.248 221.123C183.734 215.269 186.51 209.538 189.162 203.754C189.269 203.52 189.395 203.292 189.541 203.08C189.724 202.813 189.886 202.467 190.471 202.741C190.299 203.35 190.191 204.015 189.928 204.611C188.4 208.071 186.881 211.535 185.273 214.958C183.149 219.482 181.221 224.076 179.981 228.93C179.153 232.174 178.512 235.446 178.476 239.248ZM159.199 145.335C158.384 146.746 158.6 147.674 158.676 148.573C158.813 150.199 158.996 151.822 159.134 153.449C159.659 159.614 160.001 165.801 160.737 171.941C161.657 179.622 162.862 187.269 164.196 194.895C165.322 201.33 166.413 207.77 167.281 214.253C168.285 221.75 169.686 229.196 170.994 236.65C172.559 245.572 175.172 254.204 178.423 262.647C180.687 268.525 183.474 274.136 187.055 279.333C188.721 281.751 190.643 283.953 192.844 285.895C194.137 287.036 195.525 288.062 197.285 288.399C197.993 288.534 198.52 288.056 198.311 287.363C198.066 286.551 197.757 285.737 197.339 285.001C195.717 282.142 193.554 279.685 191.437 277.193C188.197 273.381 185.153 269.396 183.093 264.827C181.117 260.445 179.407 255.932 177.792 251.401C175.652 245.397 174.388 239.139 173.071 232.924C171.503 225.524 170.304 218.044 169.044 210.582C168.486 207.279 168.166 203.936 167.751 200.609C167.549 198.989 167.394 197.363 167.19 195.743C166.675 191.65 166.222 187.547 165.593 183.47C165.175 180.755 164.3 178.103 163.986 175.381C163.569 171.775 162.675 168.286 161.929 164.756C160.682 158.859 159.76 152.918 159.599 146.877C159.59 146.562 159.441 146.247 159.199 145.335ZM162.358 74.1034C162.334 75.1944 162.284 75.9604 162.309 76.7254C162.338 77.5834 162.376 78.4484 162.514 79.2924C163.041 82.5164 163.61 85.7334 164.163 88.9524C164.662 91.8564 165.686 94.5714 166.942 97.2344C170.108 103.947 172.599 110.885 173.708 118.272C174.402 122.892 174.135 127.356 171.95 131.586C171.82 131.838 171.845 132.17 171.743 132.805C172.399 132.403 172.788 132.237 173.086 131.971C175.41 129.894 177.389 127.524 178.967 124.834C179.311 124.247 179.657 123.602 179.766 122.945C180.174 120.488 180.56 118.024 180.325 115.51C179.925 111.226 179.327 106.996 178.226 102.811C177.018 98.2154 175.508 93.7564 173.431 89.4944C171.436 85.3984 169.286 81.3774 167.332 77.2624C166.358 75.2064 164.693 74.5254 162.358 74.1034ZM191.656 163.965C191.481 164.712 191.301 165.457 191.131 166.205C189.814 171.99 188.243 177.691 185.912 183.17C184.333 186.883 182.857 190.642 181.399 194.406C179.134 200.252 176.927 206.12 175.279 212.18C174.421 215.336 173.717 218.521 173.562 221.798C173.435 224.465 173.571 227.121 174.233 229.724C174.322 230.072 174.32 230.589 175.024 230.506C175.071 229.913 175.141 229.322 175.162 228.729C175.311 224.409 176.009 220.175 177.378 216.082C178.793 211.85 180.302 207.646 181.893 203.476C183.852 198.342 185.986 193.275 187.954 188.143C189.619 183.8 190.729 179.299 191.415 174.695C191.948 171.13 192.125 167.548 191.656 163.965ZM141.916 189.727C141.93 189.894 141.909 190.075 141.964 190.227C144.892 198.385 148.953 205.925 154.38 212.695C157.132 216.128 160.25 219.209 163.832 221.79C164.104 221.986 164.418 222.492 164.907 221.942C164.529 221.45 164.145 220.989 163.804 220.498C161.601 217.32 159.3 214.204 157.234 210.939C152.337 203.199 148.737 194.844 145.719 186.213C143.533 179.961 141.011 173.841 137.815 168.021C137.583 167.599 137.297 167.207 137.037 166.802C136.946 167.726 137.065 168.546 137.241 169.353C137.68 171.367 138.239 173.359 138.577 175.389C138.989 177.866 139.659 180.248 140.617 182.563C143.118 188.609 145.803 194.558 149.503 199.992C149.986 200.701 150.42 201.446 150.842 202.194C150.993 202.461 151.227 202.784 150.732 203.216C147.032 199.214 144.434 194.521 141.916 189.727ZM148.756 176.503C148.693 176.921 148.613 177.093 148.656 177.224C149.969 181.228 151 185.298 151.625 189.471C151.956 191.678 152.37 193.874 152.774 196.069C153.527 200.164 155.125 203.979 157.035 207.625C159.468 212.27 162.488 216.564 165.703 220.709C165.859 220.91 166.017 221.381 166.505 220.929C163.832 216.678 162.08 212.021 160.576 207.269C159.152 202.769 157.895 198.216 156.47 193.717C154.783 188.387 152.735 183.2 149.932 178.34C149.603 177.769 149.221 177.227 148.756 176.503ZM161.095 74.0474C158.381 73.6274 156.729 74.4004 155.756 76.5614C155.441 77.2604 155.22 78.0134 155.045 78.7614C154.81 79.7634 154.639 80.7814 154.481 81.7984C154.231 83.4154 153.485 84.6954 152.094 85.5974C151.52 85.9694 150.937 86.3574 150.453 86.8344C149.424 87.8514 149.377 88.9004 150.297 90.3424C151.14 89.7904 151.981 89.2264 152.833 88.6824C155.244 87.1424 157.689 87.1534 160.128 88.5944C160.788 88.9844 161.381 89.4884 162.003 89.9434C162.32 90.1754 162.633 90.4134 163.309 90.9194C162.751 87.7834 162.172 85.1124 161.823 82.4114C161.464 79.6304 161.327 76.8204 161.095 74.0474ZM140.944 75.7824C140.582 75.9864 140.304 76.0584 140.159 76.2384C138.682 78.0614 137.101 79.6544 134.612 80.0994C133.723 80.2584 132.976 80.9884 133.019 82.1744C134.725 83.1074 136.309 84.0034 138.334 83.9554C140.307 83.9084 141.941 84.8924 143.275 86.3494C144.214 87.3754 144.907 88.5464 145.397 89.8414C145.579 90.3214 145.69 90.8324 145.909 91.2934C146.23 91.9664 147.109 92.2124 147.924 91.8924C148.505 91.6644 148.593 91.1724 148.53 90.6254C148.49 90.2854 148.442 89.9454 148.385 89.6074C148.178 88.3814 148.327 87.2254 148.983 86.1424C149.195 85.7934 149.315 85.3884 149.534 84.8744C148.702 83.9464 147.951 83.0194 147.107 82.1884C146.07 81.1674 144.899 80.2804 143.888 79.2364C142.884 78.2004 142.007 77.0414 140.944 75.7824ZM181.679 114.92C183.185 109.853 182.54 98.2524 178.865 90.5364C176.323 85.1984 171.425 78.8424 168.547 77.5604C168.779 78.0874 168.919 78.4704 169.11 78.8264C170.205 80.8724 171.297 82.9184 172.417 84.9504C177.501 94.1784 180.771 103.957 181.464 114.528C181.472 114.664 181.603 114.79 181.679 114.92ZM135.667 161.493C135.399 162.219 135.871 162.591 136.128 162.977C139.529 168.08 142.102 173.608 144.424 179.254C146.253 183.702 147.943 188.207 149.711 192.681C149.951 193.289 150.079 193.99 150.893 194.543C150.486 191.531 150.278 188.7 149.689 185.95C148.935 182.428 147.883 178.97 146.945 175.489C146.264 172.962 145.081 170.722 143.311 168.76C140.957 166.151 138.536 163.629 135.667 161.493ZM153.793 76.2484C152.384 74.3884 150.753 74.0844 148.853 74.7724C148.692 74.8304 148.519 74.8624 148.366 74.9374C146.895 75.6534 145.388 75.5954 143.849 75.1984C143.394 75.0814 142.91 75.0814 142.164 74.9964C142.441 75.6464 142.517 76.0924 142.773 76.3764C143.572 77.2644 144.392 78.1464 145.291 78.9304C147.034 80.4514 148.865 81.8714 150.335 83.6844C150.476 83.8584 150.779 83.9004 150.982 83.9924C152.101 83.6724 152.424 82.7694 152.634 81.8434C153.05 80.0094 153.401 78.1604 153.793 76.2484ZM160.501 141.484C158.93 141.612 157.63 141.666 156.301 142.319C156.779 143.43 157.541 143.921 158.524 143.83C159.648 143.727 160.293 142.99 160.501 141.484Z" fill="#C68F88"/>
<path d="M170.79 94.7114C171.23 96.0814 171.642 97.4604 172.116 98.8184C173.103 101.647 174.224 104.434 175.107 107.295C176.589 112.096 177.243 116.995 176.266 122.003C176.185 122.417 176.025 122.816 175.883 123.215C175.867 123.26 175.728 123.262 175.614 123.292C175.059 122.74 175.268 122.032 175.284 121.383C175.321 119.928 175.513 118.469 175.444 117.022C175.363 115.32 175.261 113.578 174.833 111.941C174.01 108.797 172.928 105.722 171.996 102.605C171.358 100.475 170.767 98.3304 170.213 96.1784C170.099 95.7374 170.239 95.2304 170.262 94.7534C170.438 94.7404 170.614 94.7264 170.79 94.7114Z" fill="#C68F88"/>
</svg>
